# xmcd CD database file
#
# Track frame offsets:
#	150
#	17726
#	31615
#	54263
#	78976
#	109932
#	124250
#	142899
#	159464
#	175146
#	199090
#	220606
#
# Disc length: 3410 seconds
#
# Revision: 1
# Processed by: cddbd v1.4PL0 Copyright (c) Steve Scherf et al.
# Submitted via: CDex 1.50Beta7
#
DISCID=930d500c
DTITLE=Naco y Los Bluescavidas - Directo en Moby Dick
DYEAR=1999
DGENRE=Blues
TTITLE0=King of the Jungle
TTITLE1=Arrastrado
TTITLE2=Stormy Monday
TTITLE3=Always Shuffle
TTITLE4=Five Long Years
TTITLE5=Harmonica Rag
TTITLE6=Vas de Palo
TTITLE7=You're Humbuggin' Me
TTITLE8=Catfish Blues
TTITLE9=Big Legs
TTITLE10=I Can't Be Satisfied
TTITLE11=Just Your Fool
EXTD=YEAR: 1999
EXTT0=
EXTT1=
EXTT2=
EXTT3=
EXTT4=
EXTT5=
EXTT6=
EXTT7=
EXTT8=
EXTT9=
EXTT10=
EXTT11=
PLAYORDER=
